<svg width="25" height="25" fill="none" xmlns="http://www.w3.org/2000/svg"><path fill-rule="evenodd" clip-rule="evenodd" d="M12.452 25h.011-.011zm.088 0h-.003.01-.007zm-.126 0h.012-.012zm.167 0h-.007.012-.005zm-.204 0h.008-.008zm.244 0h-.006.008-.002zm.04-.001h-.002.01-.008zm-.33 0h.01-.01zm.37 0h-.006.014-.007zm-.41 0h.014-.014zm.451-.001h-.009.012-.003zm-.488 0h.013-.012zm-.045-.001h.01-.011zm.573 0h-.002.011-.009zm-.613-.001h.015-.016zm.653 0h-.006.015-.009zm.04-.001h-.01.016-.005zm-.73 0h.015-.015zm-.035-.001h.01-.02.01zm.806 0h-.01.02-.01zm.04-.002h-.006.017-.011zm-.897 0h.017-.017zm-.037-.002l.018.001h-.018zm.974 0l-.01.001h.018-.008zm-1.01 0h.018-.018zm1.05 0h-.014.018-.004zm-1.1-.003h.019-.019zm1.14 0h-.005.019-.014zm-1.176-.002l.02.001h-.02zm1.216 0l-.01.001h.02-.01zm-1.252-.002l.02.001h-.02zm1.292 0l-.014.001h.02-.006zm.04-.001h-.018.016l.018-.001h-.016zm-1.364 0h.016-.018l-.016-.001h.018zm1.404-.003h-.008.02-.012zm-1.458 0h.02-.02zm-.035-.002h.02-.02zm1.532 0h-.012.02-.008zm-1.566-.003l.018.002-.016-.001-.017-.002.016.002zm1.606 0l-.016.002.018-.002h.015-.017zm.04-.002h-.006.019-.013zm-1.697 0h.019-.019zm-.035-.003l.018.001h-.01l-.008-.001zm1.772 0l-.01.001.018-.001h-.008zm-1.807-.003l.017.001h-.017zm1.847 0l-.014.001h.017-.004zm-1.895-.003h.015-.014zm1.934 0h-.003.014-.01zm.04-.003l-.007.001.015-.001H13.5zm-2.01 0l.015.001H11.5l-.008-.001zm-.035-.003l.013.001h-.01l-.003-.001zm2.084 0l-.009.001.013-.001h-.004zm-2.123-.003h.004-.004zm2.163 0h.003-.003zm.04-.004h-.004.009-.005zm-2.245 0h.009-.009zm-.037-.003h.007-.006zm2.321 0h-.004.007-.003zm-3.112-.099C4.574 23.909 0 18.735 0 12.5 0 5.601 5.601 0 12.5 0S25 5.601 25 12.5c0 6.235-4.574 11.41-10.547 12.348v-8.735h2.913l.554-3.613h-3.467v-2.345c0-.988.484-1.952 2.037-1.952h1.576V5.127s-1.43-.244-2.798-.244c-2.855 0-4.721 1.73-4.721 4.863V12.5H7.373v3.613h3.174v8.735z" fill="#F9F5F1"/></svg>