<svg width="25" height="25" fill="none" xmlns="http://www.w3.org/2000/svg"><path fill-rule="evenodd" clip-rule="evenodd" d="M12.5 0C19.399 0 25 5.601 25 12.5S19.399 25 12.5 25 0 19.399 0 12.5 5.601 0 12.5 0zm0 4.688c-2.122 0-2.388.008-3.221.047-.832.037-1.4.17-1.897.363-.513.2-.949.466-1.383.9a3.83 3.83 0 00-.901 1.385c-.194.496-.326 1.064-.364 1.896-.038.833-.046 1.1-.046 3.221 0 2.122.008 2.388.046 3.221.038.832.17 1.4.364 1.896.2.514.466.95.9 1.384.435.435.87.702 1.384.901.497.194 1.065.325 1.897.363.833.038 1.1.047 3.221.047 2.122 0 2.388-.009 3.221-.047.832-.038 1.4-.17 1.896-.363.514-.2.95-.466 1.384-.9.435-.435.702-.87.901-1.384.194-.497.325-1.065.363-1.897.038-.833.047-1.1.047-3.221 0-2.122-.009-2.388-.047-3.221-.038-.832-.17-1.4-.363-1.896a3.83 3.83 0 00-.9-1.384 3.83 3.83 0 00-1.384-.901c-.497-.193-1.065-.326-1.897-.363-.833-.039-1.1-.048-3.221-.048zm0 1.407c2.086 0 2.333.008 3.157.046.762.034 1.175.162 1.45.269a2.4 2.4 0 01.899.584c.273.273.443.534.584.898.107.276.235.69.27 1.451.037.824.045 1.071.045 3.157 0 2.086-.008 2.333-.046 3.157-.034.762-.162 1.175-.269 1.45a2.42 2.42 0 01-.584.899 2.42 2.42 0 01-.898.584c-.276.107-.69.235-1.451.27-.824.037-1.07.045-3.157.045-2.086 0-2.333-.008-3.157-.046-.762-.034-1.175-.162-1.45-.269a2.42 2.42 0 01-.899-.584 2.42 2.42 0 01-.584-.898c-.107-.276-.235-.69-.27-1.451-.037-.824-.045-1.071-.045-3.157 0-2.086.008-2.333.046-3.157.034-.762.162-1.175.269-1.45a2.42 2.42 0 01.584-.899 2.42 2.42 0 01.898-.584c.276-.107.69-.235 1.451-.27.824-.037 1.071-.045 3.157-.045zm0 2.393a4.012 4.012 0 100 8.024 4.012 4.012 0 000-8.024zm0 6.616a2.604 2.604 0 110-5.208 2.604 2.604 0 010 5.208zm5.108-6.774a.938.938 0 11-1.875 0 .938.938 0 011.875 0z" fill="#F9F5F1"/></svg>