<svg width="120" height="74" fill="none" xmlns="http://www.w3.org/2000/svg"><path fill-rule="evenodd" clip-rule="evenodd" d="M94.445 4.54a6.42 6.42 0 010 9.077l-16.23 16.23a6.42 6.42 0 11-9.078-9.078l16.23-16.23a6.42 6.42 0 019.078 0z" fill="#FB4B4E"/><path fill-rule="evenodd" clip-rule="evenodd" d="M115.461 11.405a6.419 6.419 0 010 9.079L87.995 47.948a6.42 6.42 0 11-9.078-9.078l27.466-27.466a6.419 6.419 0 019.078 0z" fill="#F85A3E"/><path fill-rule="evenodd" clip-rule="evenodd" d="M114.629 37.206a6.419 6.419 0 010 9.078L92.157 68.757a6.42 6.42 0 11-9.078-9.078l22.472-22.472a6.42 6.42 0 019.078 0z" fill="#06AED5"/><path d="M0 22.7h7.16v34.342c0 1.463.072 2.68.219 3.649.146.969.375 1.746.685 2.331.33.567.741.979 1.235 1.235.512.237 1.115.356 1.81.356.695 0 1.299-.119 1.81-.356.53-.257.96-.668 1.29-1.235.347-.585.603-1.362.768-2.331.183-.97.274-2.186.274-3.649V22.7h7.077v32.45c0 2.286-.183 4.242-.549 5.87-.365 1.627-.85 2.99-1.453 4.087-.604 1.097-1.299 1.966-2.085 2.606a9.341 9.341 0 01-2.414 1.48 9.43 9.43 0 01-2.469.632 20.5 20.5 0 01-2.249.137 20.5 20.5 0 01-2.25-.137 9.429 9.429 0 01-2.44-.631 9.516 9.516 0 01-2.387-1.481c-.768-.64-1.454-1.509-2.057-2.606C1.37 64.01.887 62.657.52 61.047.174 59.42 0 57.454 0 55.15V22.7zm30.173 0h7.104v41.255h9.683v5.595H30.173V22.7zm21.286 0h7.104c.896 0 1.874.046 2.935.137 1.079.073 2.149.265 3.21.576 1.078.293 2.111.75 3.099 1.372 1.005.622 1.892 1.472 2.66 2.55.768 1.061 1.381 2.396 1.838 4.006.476 1.609.713 3.566.713 5.87v1.645c0 2.506-.22 4.654-.658 6.446-.42 1.774-.987 3.274-1.7 4.499-.714 1.207-1.546 2.176-2.497 2.907a11.023 11.023 0 01-2.935 1.674c-1.005.365-2.03.612-3.072.74-1.024.11-1.993.165-2.907.165h-.686V69.55h-7.105V22.7zm7.46 27.375c1.28 0 2.36-.183 3.237-.548a4.659 4.659 0 002.085-1.756c.53-.804.905-1.829 1.124-3.072.238-1.262.357-2.77.357-4.526v-4.224c0-1.39-.1-2.588-.302-3.593-.2-1.025-.567-1.866-1.097-2.524-.512-.658-1.207-1.143-2.085-1.454-.877-.329-1.984-.494-3.319-.494h-.356v22.191h.356z" fill="#F4EFEF"/></svg>