<svg xmlns="http://www.w3.org/2000/svg" width="268.57" height="268.57"><path d="M245.294 158.579c7.433 1.49 12.893 5.921 18.235 10.667 7.43-14.703 17.492-50.669-58.34-55.111 0 0 2.571-18.255 12.881-33.929 10.31-15.68 15.623-42.613-5.207-57.621-20.83-15.008-24.048-7.536-26.016.194-1.119 4.399-8.079 34.366-8.079 34.366s-47.267 48.984-55.329 63.32c0 0-5.833 8.452-16.132 8.452H70.578s-30.263 37.293-4.032 89.027c0 0 .445 2.357 5.821 2.357h41.213s11.422 12.767 38.299 27.99c0 0 17.246 7.843 32.479 3.36 0 0 3.133 2.697 10.305 2.697 6.902-.01 29.332 4.272 33.58-19.417-3.214-2.578-6.637-4.542-10.81-5.318-3.405-.631-1.957-5.816 1.428-5.186 5.214.976 9.518 3.631 13.507 6.949 5.575-1.648 15.597-6.604 16.237-20.913-.184-.116-.373-.189-.552-.358-3.885-3.81-8.168-6.833-13.596-7.819-3.412-.61-1.958-5.796 1.429-5.188 6.162 1.114 11.275 4.678 15.69 8.962 5.578-2.856 16.488-11.182 8.256-30.558 0 0 .399-.551 1.019-1.522-4.997-4.523-10.041-8.829-16.987-10.216-3.4-.686-1.956-5.858 1.43-5.185z"/><path d="M60.473 123.542H13.438c-30.237 53.757 0 102.136 0 102.136h48.378c-37.294-51.067-1.343-102.136-1.343-102.136z"/></svg>