<svg width="32" height="32" viewBox="0 0 32 32" fill="none" xmlns="http://www.w3.org/2000/svg">
<path fill-rule="evenodd" clip-rule="evenodd" d="M16 32C24.8366 32 32 24.8366 32 16C32 7.16345 24.8366 0 16 0C7.16345 0 0 7.16345 0 16C0 24.8366 7.16345 32 16 32ZM15.2994 7.86979C14.685 7.17153 13.6207 7.10362 12.9224 7.71806C12.2242 8.33258 12.1562 9.39679 12.7707 10.0951L17.967 16L12.7707 21.9049C12.1562 22.6032 12.2242 23.6674 12.9224 24.2819C13.6207 24.8964 14.685 24.8285 15.2994 24.1302L22.454 16L15.2994 7.86979Z" fill="#D3C2B2"/>
</svg>
