<svg width="25" height="25" viewBox="0 0 25 25" fill="none" xmlns="http://www.w3.org/2000/svg">
<path fill-rule="evenodd" clip-rule="evenodd" d="M12.4522 24.9999L12.4634 25H12.4596L12.4522 24.9999ZM12.5404 25H12.5366L12.5478 24.9999L12.5404 25ZM12.4141 24.9997L12.4261 24.9998H12.4192L12.4141 24.9997ZM12.5808 24.9998H12.5739L12.5859 24.9997L12.5808 24.9998ZM12.3772 24.9994L12.3853 24.9995L12.3789 24.9994H12.3772ZM12.6211 24.9994L12.6147 24.9995L12.6228 24.9994H12.6211ZM12.6615 24.999L12.6586 24.999L12.6695 24.9989L12.6615 24.999ZM12.3305 24.9989L12.3414 24.999L12.3385 24.999L12.3305 24.9989ZM12.7018 24.9984L12.6952 24.9985L12.7086 24.9983L12.7018 24.9984ZM12.2914 24.9983L12.3048 24.9985L12.2982 24.9984L12.2914 24.9983ZM12.742 24.9977L12.7331 24.9979L12.7455 24.9976L12.742 24.9977ZM12.2545 24.9976L12.2669 24.9979L12.258 24.9977L12.2545 24.9976ZM12.2087 24.9967L12.2197 24.9969L12.2178 24.9969L12.2087 24.9967ZM12.7822 24.9969L12.7803 24.9969L12.7913 24.9967L12.7822 24.9969ZM12.1686 24.9957L12.1837 24.996L12.1776 24.9959L12.1686 24.9957ZM12.8224 24.9959L12.8163 24.996L12.8314 24.9957L12.8224 24.9959ZM12.8626 24.9948L12.8528 24.9951L12.8682 24.9947L12.8626 24.9948ZM12.1318 24.9947L12.1472 24.9951L12.1374 24.9948L12.1318 24.9947ZM12.0966 24.9936L12.1076 24.9939L12.0973 24.9936L12.0878 24.9933L12.0966 24.9936ZM12.9027 24.9936L12.8924 24.9939L12.9034 24.9936L12.9122 24.9933L12.9027 24.9936ZM12.9428 24.9923L12.9374 24.9925L12.9542 24.9919L12.9428 24.9923ZM12.0458 24.9919L12.0626 24.9925L12.0572 24.9923L12.0458 24.9919ZM12.0092 24.9905L12.0269 24.9912L12.0171 24.9908L12.0092 24.9905ZM12.9829 24.9908L12.9731 24.9912L12.9908 24.9905L12.9829 24.9908ZM11.9733 24.9891L11.9906 24.9898L11.9771 24.9893L11.9733 24.9891ZM13.0229 24.9893L13.0094 24.9898L13.0267 24.9891L13.0229 24.9893ZM11.923 24.9869L11.9416 24.9877L11.9371 24.9875L11.923 24.9869ZM13.0629 24.9875L13.0584 24.9877L13.077 24.9869L13.0629 24.9875ZM11.887 24.9852L11.9062 24.9861L11.8971 24.9857L11.887 24.9852ZM13.1029 24.9857L13.0938 24.9861L13.113 24.9852L13.1029 24.9857ZM11.8514 24.9834L11.8708 24.9844L11.8572 24.9837L11.8514 24.9834ZM13.1428 24.9837L13.1292 24.9844L13.1486 24.9834L13.1428 24.9837ZM13.1828 24.9816L13.1651 24.9826L13.1808 24.9817L13.1992 24.9807L13.1828 24.9816ZM11.8192 24.9817L11.8349 24.9826L11.8172 24.9816L11.8008 24.9807L11.8192 24.9817ZM13.2226 24.9794L13.2148 24.9798L13.2346 24.9787L13.2226 24.9794ZM11.7654 24.9787L11.7852 24.9798L11.7774 24.9794L11.7654 24.9787ZM11.7301 24.9766L11.7499 24.9778L11.7375 24.9771L11.7301 24.9766ZM13.2625 24.9771L13.2501 24.9778L13.2699 24.9766L13.2625 24.9771ZM11.6965 24.9745L11.7143 24.9756L11.6977 24.9746L11.681 24.9735L11.6965 24.9745ZM13.3023 24.9746L13.2857 24.9756L13.3035 24.9745L13.319 24.9735L13.3023 24.9746ZM13.342 24.972L13.3361 24.9724L13.355 24.9711L13.342 24.972ZM11.645 24.9711L11.6639 24.9724L11.658 24.972L11.645 24.9711ZM11.6098 24.9687L11.6284 24.97L11.6182 24.9693L11.6098 24.9687ZM13.3818 24.9693L13.3716 24.97L13.3902 24.9687L13.3818 24.9693ZM11.5747 24.9662L11.5917 24.9674L11.5785 24.9665L11.5747 24.9662ZM13.4215 24.9665L13.4083 24.9674L13.4253 24.9662L13.4215 24.9665ZM11.5275 24.9626L11.5424 24.9638L11.5388 24.9635L11.5275 24.9626ZM13.4612 24.9635L13.4576 24.9638L13.4725 24.9626L13.4612 24.9635ZM13.5008 24.9604L13.4937 24.961L13.5088 24.9598L13.5008 24.9604ZM11.4912 24.9598L11.5063 24.961L11.4992 24.9604L11.4912 24.9598ZM11.4558 24.9569L11.4687 24.958L11.4596 24.9572L11.4558 24.9569ZM13.5404 24.9572L13.5313 24.958L13.5442 24.9569L13.5404 24.9572ZM11.4168 24.9536L11.4207 24.954L11.42 24.9539L11.4168 24.9536ZM13.58 24.9539L13.5793 24.954L13.5832 24.9536L13.58 24.9539ZM13.6195 24.9504L13.616 24.9507L13.6249 24.95L13.6195 24.9504ZM11.3751 24.95L11.384 24.9507L11.3805 24.9504L11.3751 24.95ZM11.3385 24.9466L11.3451 24.9473L11.341 24.9469L11.3385 24.9466ZM13.659 24.9469L13.6549 24.9473L13.6615 24.9466L13.659 24.9469ZM10.5469 24.848C4.57427 23.9092 0 18.7346 0 12.5C0 5.60107 5.60107 0 12.5 0C19.3989 0 25 5.60107 25 12.5C25 18.7346 20.4257 23.9092 14.4531 24.848V16.1133H17.3657L17.9199 12.5H14.4531V10.1552C14.4531 9.1667 14.9374 8.20312 16.4902 8.20312H18.0664V5.12695C18.0664 5.12695 16.6359 4.88281 15.2683 4.88281C12.413 4.88281 10.5469 6.61328 10.5469 9.74609V12.5H7.37305V16.1133H10.5469V24.848Z" fill="#F9F5F1"/>
</svg>
