<svg width="25" height="25" viewBox="0 0 25 25" fill="none" xmlns="http://www.w3.org/2000/svg">
<path fill-rule="evenodd" clip-rule="evenodd" d="M12.5 0C19.3989 0 25 5.60107 25 12.5C25 19.3989 19.3989 25 12.5 25C5.60107 25 0 19.3989 0 12.5C0 5.60107 5.60107 0 12.5 0ZM12.5 4.6875C10.3783 4.6875 10.1122 4.69648 9.27891 4.73452C8.44736 4.77246 7.87944 4.90454 7.38247 5.09766C6.86875 5.29731 6.43306 5.56445 5.99873 5.99878C5.5644 6.43311 5.29727 6.8688 5.09761 7.38252C4.90449 7.87944 4.77246 8.44736 4.73447 9.27891C4.69648 10.1122 4.6875 10.3783 4.6875 12.5C4.6875 14.6217 4.69648 14.8878 4.73447 15.7211C4.77246 16.5526 4.90449 17.1206 5.09761 17.6175C5.29727 18.1312 5.5644 18.5669 5.99873 19.0013C6.43306 19.4356 6.86875 19.7027 7.38247 19.9024C7.87944 20.0955 8.44736 20.2275 9.27891 20.2655C10.1122 20.3035 10.3783 20.3125 12.5 20.3125C14.6217 20.3125 14.8878 20.3035 15.7211 20.2655C16.5526 20.2275 17.1206 20.0955 17.6175 19.9024C18.1312 19.7027 18.5669 19.4356 19.0013 19.0013C19.4356 18.5669 19.7027 18.1312 19.9024 17.6175C20.0955 17.1206 20.2275 16.5526 20.2655 15.7211C20.3035 14.8878 20.3125 14.6217 20.3125 12.5C20.3125 10.3783 20.3035 10.1122 20.2655 9.27891C20.2275 8.44736 20.0955 7.87944 19.9024 7.38252C19.7027 6.8688 19.4356 6.43311 19.0013 5.99878C18.5669 5.56445 18.1312 5.29731 17.6175 5.09766C17.1206 4.90454 16.5526 4.77246 15.7211 4.73452C14.8878 4.69648 14.6217 4.6875 12.5 4.6875ZM12.5 6.09517C14.586 6.09517 14.8331 6.10313 15.6569 6.14072C16.4187 6.17549 16.8323 6.30273 17.1076 6.40972C17.4723 6.55142 17.7325 6.72075 18.0059 6.99414C18.2793 7.26748 18.4486 7.52778 18.5903 7.89243C18.6973 8.16772 18.8246 8.58135 18.8593 9.34307C18.8969 10.1669 18.9048 10.414 18.9048 12.5C18.9048 14.586 18.8969 14.8331 18.8593 15.6569C18.8246 16.4187 18.6973 16.8323 18.5903 17.1076C18.4486 17.4723 18.2793 17.7325 18.0059 18.0059C17.7325 18.2793 17.4723 18.4486 17.1076 18.5903C16.8323 18.6973 16.4187 18.8246 15.6569 18.8593C14.8333 18.8969 14.5862 18.9048 12.5 18.9048C10.4138 18.9048 10.1668 18.8969 9.34307 18.8593C8.58135 18.8246 8.16772 18.6973 7.89243 18.5903C7.52773 18.4486 7.26748 18.2793 6.99409 18.0059C6.7207 17.7325 6.55142 17.4723 6.40972 17.1076C6.30273 16.8323 6.17544 16.4187 6.14067 15.6569C6.10308 14.8331 6.09517 14.586 6.09517 12.5C6.09517 10.414 6.10308 10.1669 6.14067 9.34307C6.17544 8.58135 6.30273 8.16772 6.40972 7.89243C6.55142 7.52778 6.7207 7.26748 6.99409 6.99414C7.26748 6.72075 7.52773 6.55142 7.89243 6.40972C8.16772 6.30273 8.58135 6.17549 9.34307 6.14072C10.1669 6.10313 10.414 6.09517 12.5 6.09517ZM12.5 8.48818C10.2843 8.48818 8.48818 10.2843 8.48818 12.5C8.48818 14.7157 10.2843 16.5118 12.5 16.5118C14.7157 16.5118 16.5118 14.7157 16.5118 12.5C16.5118 10.2843 14.7157 8.48818 12.5 8.48818ZM12.5 15.1042C11.0618 15.1042 9.89585 13.9382 9.89585 12.5C9.89585 11.0618 11.0618 9.89585 12.5 9.89585C13.9382 9.89585 15.1042 11.0618 15.1042 12.5C15.1042 13.9382 13.9382 15.1042 12.5 15.1042ZM17.6079 8.32969C17.6079 8.84746 17.1881 9.26714 16.6703 9.26714C16.1526 9.26714 15.7329 8.84746 15.7329 8.32969C15.7329 7.81191 16.1526 7.39219 16.6703 7.39219C17.1881 7.39219 17.6079 7.81191 17.6079 8.32969Z" fill="#F9F5F1"/>
</svg>
