<svg width="120" height="74" viewBox="0 0 120 74" fill="none" xmlns="http://www.w3.org/2000/svg">
<path fill-rule="evenodd" clip-rule="evenodd" d="M94.4453 4.53906C96.9522 7.04592 96.9522 11.1103 94.4453 13.6172L78.2156 29.8469C75.7088 32.3538 71.6443 32.3537 69.1375 29.8469C66.6306 27.34 66.6306 23.2756 69.1375 20.7688L85.3672 4.53906C87.874 2.03221 91.9385 2.03221 94.4453 4.53906Z" fill="#FB4B4E"/>
<path fill-rule="evenodd" clip-rule="evenodd" d="M115.461 11.4054C117.968 13.9122 117.968 17.9766 115.461 20.4835L87.9953 47.9491C85.4884 50.456 81.424 50.456 78.9172 47.9491C76.4103 45.4423 76.4103 41.3779 78.9172 38.871L106.383 11.4054C108.89 8.89851 112.954 8.89851 115.461 11.4054Z" fill="#F85A3E"/>
<path fill-rule="evenodd" clip-rule="evenodd" d="M114.629 37.2064C117.136 39.7133 117.136 43.7777 114.629 46.2845L92.157 68.7564C89.6502 71.2633 85.5857 71.2633 83.0789 68.7564C80.572 66.2496 80.572 62.1852 83.0789 59.6783L105.551 37.2064C108.058 34.6996 112.122 34.6996 114.629 37.2064Z" fill="#06AED5"/>
<path d="M0 22.7002H7.1592V57.0424C7.1592 58.5053 7.23235 59.7214 7.37864 60.6906C7.52493 61.6598 7.75352 62.437 8.06439 63.0221C8.39355 63.589 8.805 64.0005 9.29873 64.2565C9.81076 64.4942 10.4142 64.6131 11.1091 64.6131C11.804 64.6131 12.4075 64.4942 12.9195 64.2565C13.4498 64.0005 13.8795 63.589 14.2087 63.0221C14.5561 62.437 14.8121 61.6598 14.9767 60.6906C15.1596 59.7214 15.251 58.5053 15.251 57.0424V22.7002H22.3279V55.1497C22.3279 57.4356 22.1451 59.3922 21.7793 61.0197C21.4136 62.6472 20.929 64.0096 20.3256 65.1068C19.7221 66.204 19.0272 67.0726 18.2409 67.7126C17.4728 68.3527 16.6682 68.8464 15.827 69.1938C15.0042 69.523 14.1813 69.7333 13.3584 69.8247C12.5355 69.9162 11.7857 69.9619 11.1091 69.9619C10.4325 69.9619 9.68275 69.9162 8.85985 69.8247C8.05524 69.7333 7.24149 69.523 6.41859 69.1938C5.5957 68.8464 4.80023 68.3527 4.03219 67.7126C3.26416 67.0726 2.57841 66.204 1.97495 65.1068C1.37149 64.0096 0.8869 62.6564 0.521168 61.0472C0.173723 59.4197 0 57.4539 0 55.1497V22.7002Z" fill="#F4EFEF"/>
<path d="M30.1729 22.7002H37.2772V63.9547H46.96V69.5504H30.1729V22.7002Z" fill="#F4EFEF"/>
<path d="M51.4585 22.7002H58.5628C59.4589 22.7002 60.4372 22.7459 61.4978 22.8373C62.5767 22.9105 63.6465 23.1025 64.7071 23.4134C65.786 23.7059 66.8192 24.1631 67.8067 24.7849C68.8125 25.4066 69.6994 26.2569 70.4674 27.3358C71.2354 28.3965 71.848 29.7314 72.3052 31.3406C72.7806 32.9498 73.0184 34.9065 73.0184 37.2106V38.8564C73.0184 41.3617 72.7989 43.5103 72.3601 45.3024C71.9395 47.0762 71.3726 48.5757 70.6594 49.8009C69.9462 51.0078 69.1142 51.977 68.1633 52.7085C67.2307 53.4399 66.2523 53.9977 65.2283 54.3817C64.2225 54.7474 63.1985 54.9943 62.1561 55.1223C61.1321 55.232 60.1629 55.2869 59.2486 55.2869H58.5628V69.5504H51.4585V22.7002ZM58.9194 50.0752C60.1995 50.0752 61.2784 49.8923 62.1561 49.5266C63.0339 49.1426 63.7288 48.5574 64.2408 47.7711C64.7711 46.9665 65.146 45.9424 65.3654 44.699C65.6032 43.4372 65.722 41.9285 65.722 40.173V35.9488C65.722 34.559 65.6214 33.3613 65.4203 32.3555C65.2191 31.3315 64.8534 30.4903 64.3231 29.832C63.8111 29.1736 63.1162 28.689 62.2384 28.3782C61.3607 28.049 60.2543 27.8844 58.9194 27.8844H58.5628V50.0752H58.9194Z" fill="#F4EFEF"/>
</svg>
