<?xml version="1.0" encoding="iso-8859-1"?>
<!-- Generator: Adobe Illustrator 16.0.0, SVG Export Plug-In . SVG Version: 6.00 Build 0)  -->
<!DOCTYPE svg PUBLIC "-//W3C//DTD SVG 1.1//EN" "http://www.w3.org/Graphics/SVG/1.1/DTD/svg11.dtd">
<svg version="1.1" id="Capa_1" xmlns="http://www.w3.org/2000/svg" xmlns:xlink="http://www.w3.org/1999/xlink" x="0px" y="0px"
	 width="268.57px" height="268.57px" viewBox="0 0 268.57 268.57" style="enable-background:new 0 0 268.57 268.57;"
	 xml:space="preserve">
<g>
	<g>
		<path d="M245.294,158.579c7.433,1.49,12.893,5.921,18.235,10.667c7.43-14.703,17.492-50.669-58.34-55.111
			c0,0,2.571-18.255,12.881-33.929c10.31-15.68,15.623-42.613-5.207-57.621c-20.83-15.008-24.048-7.536-26.016,0.194
			c-1.119,4.399-8.079,34.366-8.079,34.366s-47.267,48.984-55.329,63.32c0,0-5.833,8.452-16.132,8.452s-36.729,0-36.729,0
			s-30.263,37.293-4.032,89.027c0,0,0.445,2.357,5.821,2.357c5.376,0,41.213,0,41.213,0s11.422,12.767,38.299,27.99
			c0,0,17.246,7.843,32.479,3.36c0,0,3.133,2.697,10.305,2.697c6.902-0.01,29.332,4.272,33.58-19.417
			c-3.214-2.578-6.637-4.542-10.81-5.318c-3.405-0.631-1.957-5.816,1.428-5.186c5.214,0.976,9.518,3.631,13.507,6.949
			c5.575-1.648,15.597-6.604,16.237-20.913c-0.184-0.116-0.373-0.189-0.552-0.358c-3.885-3.81-8.168-6.833-13.596-7.819
			c-3.412-0.61-1.958-5.796,1.429-5.188c6.162,1.114,11.275,4.678,15.69,8.962c5.578-2.856,16.488-11.182,8.256-30.558
			c0,0,0.399-0.551,1.019-1.522c-4.997-4.523-10.041-8.829-16.987-10.216C240.464,163.078,241.908,157.906,245.294,158.579z"/>
		<path d="M60.473,123.542H13.438c-30.237,53.757,0,102.136,0,102.136h48.378C24.522,174.611,60.473,123.542,60.473,123.542z"/>
	</g>
</g>
<g>
</g>
<g>
</g>
<g>
</g>
<g>
</g>
<g>
</g>
<g>
</g>
<g>
</g>
<g>
</g>
<g>
</g>
<g>
</g>
<g>
</g>
<g>
</g>
<g>
</g>
<g>
</g>
<g>
</g>
</svg>
